<svg xmlns="http://www.w3.org/2000/svg" xmlns:xlink="http://www.w3.org/1999/xlink" version="1.1" x="0px" y="0px" viewBox="0 0 50 62.5" style="enable-background:new 0 0 50 50;" xml:space="preserve"><g><path d="M48.3,28.1c0.6-2.3,0.7-4.4,0.7-6.5c-3,2.2-6.7,4-10.3,4.9c3.5-1.8,7.4-4.8,9.9-8.3c-1-5.9-4.2-11-8.7-14.5   c5.1,11.2,0.7,19-4,20.5c0.2,7.8-1.9,14.8-9.2,17.5l-0.4-8.9l4.7,3.7l-4-5.2l6.5-0.8L27,29.6l4-5.2l-4.9,3.8L25,3.6l-1.1,24.6   L19,24.4l4,5.2l-6.5,0.8l6.5,0.8l-4,5.2l4.7-3.7l-0.4,8.9c-7.3-2.7-9.5-9.6-9.2-17.5c-4.9-1.6-9.1-9.3-4-20.5   c-4.5,3.6-7.6,8.7-8.7,14.5c2.5,3.4,6.3,6.4,9.9,8.3C7.8,25.5,4,23.8,1,21.5c-0.1,2.1,0.1,4.2,0.7,6.5c2.3,2.9,5.9,5.6,9.2,7.3   c-2.5-0.7-5.2-1.8-7.8-3.3C4.4,35.2,6.5,38,9,40.2c2.7,0.6,5.5,0.9,7.9,0.8c-1.9,0.5-3.8,0.8-5.8,0.9c3.9,2.8,8.7,4.4,13.9,4.4   s10-1.7,13.9-4.4c-2-0.1-3.9-0.4-5.8-0.9c2.5,0.1,5.2-0.2,7.9-0.8c2.5-2.2,4.5-5,5.9-8.1c-2.6,1.5-5.3,2.6-7.8,3.3   C42.5,33.6,46,31,48.3,28.1z M25,32c-0.9,0-1.6-0.7-1.6-1.6s0.7-1.6,1.6-1.6s1.6,0.7,1.6,1.6S25.9,32,25,32z"/></g><text x="0" y="65" fill="#000000" font-size="5px" font-weight="bold" font-family="'Helvetica Neue', Helvetica, Arial-Unicode, Arial, Sans-serif">Created by Vectors Market</text><text x="0" y="70" fill="#000000" font-size="5px" font-weight="bold" font-family="'Helvetica Neue', Helvetica, Arial-Unicode, Arial, Sans-serif">from the Noun Project</text></svg>