<svg xmlns="http://www.w3.org/2000/svg" viewBox="0 0 54 82.5" x="0px" y="0px"><path fill="#000000" fill-rule="evenodd" d="M72,332 L72,315 C72,305.058875 80.0588745,297 90,297 C99.9411255,297 108,305.058875 108,315 L108,332 L115,332 C115.552285,332 116,332.447715 116,333 L116,354 C116.552285,354 117,354.447715 117,355 L117,362 C117,362.552285 116.552285,363 116,363 L107,363 C106.447715,363 106,362.552285 106,362 L106,352.618034 L99.4472136,355.894427 C99.3083582,355.963855 99.1552451,356 99,356 L96,356 L96,362 C96,362.552285 95.5522847,363 95,363 L85,363 C84.4477153,363 84,362.552285 84,362 L84,356 L81,356 C80.8447549,356 80.6916418,355.963855 80.5527864,355.894427 L74,352.618034 L74,362 C74,362.552285 73.5522847,363 73,363 L64,363 C63.4477153,363 63,362.552285 63,362 L63,355 C63,354.447715 63.4477153,354 64,354 L64,333 C64,332.447715 64.4477153,332 65,332 L72,332 Z M74,317 L74,350.381966 L81.236068,354 L98.763932,354 L106,350.381966 L106,317 L74,317 Z M66,354 L72,354 L72,334 L66,334 L66,354 Z M65,356 L65,361 L72,361 L72,356 L65,356 Z M108,356 L108,361 L115,361 L115,356 L108,356 Z M114,354 L114,334 L108,334 L108,354 L114,354 Z M94,356 L86,356 L86,361 L94,361 L94,356 Z M106,315 C106,306.163444 98.836556,299 90,299 C81.163444,299 74,306.163444 74,315 L106,315 Z M97,312 C95.3431458,312 94,310.656854 94,309 C94,307.343146 95.3431458,306 97,306 C98.6568542,306 100,307.343146 100,309 C100,310.656854 98.6568542,312 97,312 Z M97,310 C97.5522847,310 98,309.552285 98,309 C98,308.447715 97.5522847,308 97,308 C96.4477153,308 96,308.447715 96,309 C96,309.552285 96.4477153,310 97,310 Z M87,313 C84.2385763,313 82,310.761424 82,308 C82,305.238576 84.2385763,303 87,303 C89.7614237,303 92,305.238576 92,308 C92,310.761424 89.7614237,313 87,313 Z M87,311 C88.6568542,311 90,309.656854 90,308 C90,306.343146 88.6568542,305 87,305 C85.3431458,305 84,306.343146 84,308 C84,309.656854 85.3431458,311 87,311 Z M92,336 L100,336 C100.552285,336 101,336.447715 101,337 L101,345 C101,345.552285 100.552285,346 100,346 L92,346 C91.4477153,346 91,345.552285 91,345 L91,337 C91,336.447715 91.4477153,336 92,336 Z M93,338 L93,344 L99,344 L99,338 L93,338 Z M80,338 C79.4477153,338 79,337.552285 79,337 C79,336.447715 79.4477153,336 80,336 L86,336 C86.5522847,336 87,336.447715 87,337 C87,337.552285 86.5522847,338 86,338 L80,338 Z M80,327 C79.4477153,327 79,326.552285 79,326 C79,325.447715 79.4477153,325 80,325 L100,325 C100.552285,325 101,325.447715 101,326 C101,326.552285 100.552285,327 100,327 L80,327 Z M86,344 C86.5522847,344 87,344.447715 87,345 C87,345.552285 86.5522847,346 86,346 L80,346 C79.4477153,346 79,345.552285 79,345 C79,344.447715 79.4477153,344 80,344 L86,344 Z" transform="translate(-63 -297)"/><text x="0" y="81" fill="#000000" font-size="5px" font-weight="bold" font-family="'Helvetica Neue', Helvetica, Arial-Unicode, Arial, Sans-serif">Created by Andrejs Kirma</text><text x="0" y="86" fill="#000000" font-size="5px" font-weight="bold" font-family="'Helvetica Neue', Helvetica, Arial-Unicode, Arial, Sans-serif">from the Noun Project</text></svg>